<?xml version="1.0" standalone="no"?>
<!DOCTYPE svg PUBLIC "-//W3C//DTD SVG 20010904//EN"
 "http://www.w3.org/TR/2001/REC-SVG-20010904/DTD/svg10.dtd">
<svg version="1.0" xmlns="http://www.w3.org/2000/svg"
 width="1078.000000pt" height="834.000000pt" viewBox="0 0 1078.000000 834.000000"
 preserveAspectRatio="xMidYMid meet">

<g transform="translate(0.000000,834.000000) scale(0.100000,-0.100000)"
fill="#000000" stroke="none">
<path d="M0 4170 l0 -4170 1844 0 c1748 0 1845 1 1849 18 3 9 8 35 12 57 24
140 148 385 304 603 l81 112 -46 0 c-121 0 -361 -70 -503 -148 -81 -44 -84
-45 -98 -26 -18 24 -9 61 20 85 59 50 289 125 467 154 246 39 510 -1 613 -94
151 -136 43 -318 -247 -415 -101 -34 -337 -44 -371 -16 -9 7 -15 7 -23 -2 -18
-24 -79 -153 -105 -223 -14 -38 -28 -78 -32 -88 -7 -16 16 -17 396 -17 l403 0
-29 30 c-25 26 -29 38 -29 83 2 85 75 209 193 329 87 87 128 104 218 93 61 -7
113 -44 113 -79 0 -35 -11 -38 -46 -11 -50 38 -118 35 -175 -9 -77 -58 -206
-239 -216 -302 -5 -31 -4 -34 21 -34 34 0 88 50 186 170 43 52 89 105 103 118
24 23 26 23 56 8 17 -9 31 -23 31 -30 0 -8 -14 -43 -30 -79 -56 -118 -61 -267
-10 -267 11 0 20 -4 20 -10 0 -6 88 -10 245 -10 l244 0 -24 26 c-61 66 -37
160 88 333 48 66 75 93 135 132 64 42 82 49 125 49 81 0 167 -62 150 -107 -8
-21 -33 -15 -84 17 -58 38 -78 35 -152 -28 -91 -77 -193 -221 -204 -286 -5
-31 -3 -36 15 -36 31 0 108 70 208 187 97 116 124 132 159 94 18 -20 17 -22
-14 -91 -57 -123 -64 -261 -13 -268 12 -2 22 -8 22 -13 0 -5 17 -9 39 -9 l38
0 -33 35 c-42 45 -50 88 -30 157 34 116 164 286 251 328 41 20 49 21 87 8 41
-13 69 -40 55 -54 -4 -4 -19 -2 -33 5 -24 10 -30 8 -68 -23 -98 -80 -273 -363
-243 -392 18 -18 143 94 246 220 81 100 105 143 185 341 32 77 63 154 71 171
16 37 5 54 -36 54 -48 0 -63 51 -19 65 41 13 153 -22 164 -50 18 -49 11 -71
-107 -315 -149 -310 -163 -349 -174 -482 l-6 -68 91 0 90 0 -11 36 c-29 95 83
464 145 479 23 6 78 -9 78 -20 0 -3 -15 -36 -34 -73 -18 -37 -47 -107 -64
-157 -68 -205 -64 -284 11 -225 40 31 56 23 19 -10 l-32 -30 40 0 c22 0 40 4
40 9 0 5 15 13 33 16 42 10 76 27 109 58 31 29 30 43 -12 97 -58 75 -79 146
-61 202 25 76 150 168 229 168 30 0 45 -7 70 -33 18 -18 32 -37 32 -43 0 -5
-26 -9 -58 -9 -45 0 -68 -6 -106 -29 -72 -42 -86 -60 -86 -109 0 -34 11 -62
53 -132 70 -119 71 -121 48 -161 l-20 -34 79 0 79 0 -25 38 c-23 33 -25 44
-21 102 11 157 188 390 297 390 54 0 104 -37 108 -79 5 -54 -6 -79 -56 -128
-58 -56 -113 -82 -174 -83 -38 0 -48 -4 -53 -20 -3 -11 -10 -20 -14 -20 -15 0
-32 -57 -29 -96 3 -39 3 -39 46 -38 49 1 105 36 220 139 80 71 102 80 102 38
0 -20 -21 -47 -87 -113 -49 -48 -101 -96 -118 -108 l-30 -21 1798 -1 1797 0 0
4170 0 4170 -3857 -1 c-2677 0 -3849 -4 -3828 -11 17 -6 102 -35 190 -65 88
-30 210 -72 270 -93 61 -21 182 -63 270 -94 224 -77 224 -77 201 -85 -12 -5
-49 3 -95 20 -42 15 -148 52 -236 82 -88 31 -285 99 -439 151 l-278 96 -260 0
-260 0 6 -31 c3 -18 22 -127 41 -243 19 -116 42 -245 50 -286 8 -41 19 -109
26 -151 l11 -76 77 -6 c42 -4 193 -13 336 -22 280 -17 309 -20 300 -35 -3 -6
-50 -10 -103 -11 -108 0 -174 -16 -87 -20 l50 -2 -60 -6 -60 -6 70 -13 c39 -8
77 -16 85 -19 20 -8 -60 -21 -135 -22 -79 -2 -53 -21 28 -21 56 0 83 -19 30
-21 -17 -1 -21 -3 -10 -6 25 -7 21 -18 -25 -69 -24 -26 -54 -59 -67 -73 -13
-14 -34 -42 -47 -63 -13 -20 -28 -39 -33 -43 -6 -3 -17 -20 -26 -38 l-15 -32
-247 -33 c-373 -51 -507 -69 -743 -101 -118 -16 -297 -40 -397 -52 -101 -13
-183 -26 -183 -30 0 -7 133 -192 251 -350 35 -47 120 -164 189 -258 69 -95
132 -181 140 -191 8 -10 33 -44 55 -75 46 -64 157 -217 187 -257 11 -15 54
-73 95 -129 55 -74 78 -98 83 -88 6 11 24 139 32 236 1 7 5 10 9 8 3 -3 9 4
12 15 3 10 0 21 -6 23 -7 2 -4 29 8 79 17 74 18 76 52 83 33 6 61 -3 37 -12
-6 -2 -20 -10 -30 -18 -17 -13 -5 -14 100 -15 106 0 117 -2 106 -15 -9 -11
-10 -19 -2 -27 14 -14 32 -1 32 23 0 10 6 19 14 19 10 0 14 -9 13 -26 -2 -26
-13 -37 -49 -48 -24 -7 -23 -22 2 -29 11 -3 20 -10 20 -17 0 -7 -8 -9 -22 -5
-17 5 -19 4 -9 -4 8 -5 41 -8 74 -5 38 3 56 1 52 -6 -3 -5 -16 -10 -27 -10
-33 0 -98 -22 -92 -31 3 -5 -6 -9 -20 -9 -16 0 -26 -6 -26 -15 0 -11 12 -15
48 -16 l47 -1 -30 -13 c-16 -8 -40 -14 -51 -15 -26 0 -50 -25 -35 -35 6 -3 19
-1 30 4 14 8 20 7 25 -4 3 -10 -1 -15 -12 -16 -14 0 -14 -2 3 -9 11 -4 31 -6
45 -3 14 3 -2 -9 -35 -27 -33 -18 -65 -36 -71 -41 -6 -5 -14 -6 -17 -3 -3 4
-13 -1 -21 -9 -9 -8 -21 -17 -28 -20 -9 -3 -10 -8 -3 -15 8 -8 18 -8 38 3 15
7 27 11 27 7 0 -4 4 -2 8 3 7 10 55 31 97 42 16 5 14 1 -7 -16 -15 -12 -31
-23 -35 -24 -4 -1 -19 -14 -34 -29 -14 -15 -29 -25 -32 -21 -4 3 -7 -3 -7 -15
0 -27 4 -27 39 -1 17 13 34 18 42 14 7 -5 10 -4 5 3 -8 14 50 55 65 46 7 -4
10 -3 7 2 -3 5 6 18 20 28 27 21 24 12 -13 -39 -11 -16 -27 -46 -35 -65 -8
-19 -17 -37 -20 -40 -12 -9 -29 -70 -20 -70 5 0 22 21 37 48 15 26 33 53 40
60 7 7 13 16 13 20 1 4 16 25 35 46 34 38 33 35 -27 -96 l-62 -135 -84 1 c-46
1 -86 -2 -88 -6 -3 -4 5 -21 17 -38 l23 -30 700 -1 c386 0 692 -4 682 -8 -29
-11 -4 -22 33 -15 17 4 34 11 37 15 3 5 20 9 37 9 31 -1 30 -2 -25 -34 -73
-41 -77 -46 -40 -43 16 1 28 5 26 8 -5 9 68 29 80 22 6 -3 8 -2 3 2 -10 12 61
44 97 45 24 0 12 -9 -55 -41 -46 -22 -100 -47 -119 -55 -27 -12 -31 -17 -20
-24 8 -5 17 -6 20 -2 3 4 52 25 110 46 58 21 126 47 152 59 27 11 50 18 53 15
4 -4 -58 -41 -219 -130 -17 -10 -38 -22 -46 -28 -8 -6 -43 -27 -77 -47 -35
-20 -63 -40 -63 -45 0 -9 32 4 110 45 196 103 231 118 246 106 9 -7 24 -4 53
10 22 12 44 21 48 21 14 0 -128 -81 -235 -133 -56 -27 -101 -51 -99 -53 10
-10 193 58 260 96 9 6 17 7 17 3 -1 -7 -59 -51 -172 -131 -56 -39 -118 -101
-118 -117 0 -20 2 -20 64 20 30 19 59 35 63 35 5 0 26 12 46 26 21 14 40 24
43 22 2 -3 -52 -42 -121 -88 -156 -105 -171 -137 -18 -40 25 16 50 27 54 24 5
-3 9 0 9 5 0 6 24 22 53 37 l52 26 -30 -26 c-16 -14 -56 -45 -87 -68 -32 -23
-56 -44 -54 -46 7 -6 65 27 165 95 l96 64 -95 -92 c-95 -91 -97 -113 -4 -45
75 54 144 96 144 88 0 -8 -76 -83 -146 -144 l-42 -36 -633 -1 c-348 -1 -634
-3 -635 -4 -2 -1 21 -34 49 -72 l52 -70 604 -3 604 -2 -23 -25 c-35 -37 -16
-42 22 -6 30 28 68 42 68 24 0 -3 -11 -20 -23 -37 -13 -17 -41 -56 -62 -86
-21 -30 -41 -57 -45 -60 -3 -3 -10 -14 -13 -25 -9 -24 66 54 142 148 30 37 56
65 58 63 2 -1 -19 -46 -46 -99 -34 -68 -43 -94 -30 -87 9 6 32 32 50 60 59 91
49 63 -57 -169 -19 -40 -33 -76 -30 -78 4 -5 89 138 124 210 13 27 25 47 27
45 4 -4 -26 -111 -50 -181 -10 -26 -15 -51 -11 -54 3 -3 9 3 12 13 4 10 21 51
39 89 18 39 38 87 44 108 7 20 15 37 18 37 6 0 -4 -142 -13 -205 -4 -25 -3
-27 6 -10 7 15 9 3 5 -45 l-5 -65 14 48 c15 50 34 82 23 37 -4 -14 -7 -44 -7
-67 l0 -43 -541 0 c-298 0 -544 -2 -547 -4 -2 -3 31 -53 74 -111 l78 -105 467
0 466 0 7 -190 c4 -104 5 -194 1 -200 -4 -7 -102 -10 -298 -10 -161 0 -302 0
-314 0 -13 0 -23 -4 -23 -10 0 -5 45 -71 100 -145 l100 -135 224 0 224 0 7
-31 c5 -23 11 -29 23 -24 10 3 54 9 99 12 68 5 82 9 86 24 5 18 23 19 366 19
l361 0 0 -30 0 -30 99 0 99 0 11 30 10 30 455 0 455 0 13 24 c24 46 125 191
142 205 14 12 16 12 10 -3 -3 -9 -10 -16 -15 -16 -5 0 -9 -4 -9 -9 0 -5 -24
-44 -52 -87 -53 -79 -98 -156 -98 -168 0 -3 172 -6 383 -6 l382 0 28 -29 28
-30 -3 -158 -3 -158 -233 -3 c-173 -2 -234 -6 -237 -15 -2 -6 -6 -82 -7 -169
l-3 -156 140 -7 c77 -4 147 -6 155 -5 40 6 62 0 56 -16 -4 -10 0 -17 11 -20
16 -5 18 -20 16 -167 l-1 -162 -189 -5 -188 -5 -5 -185 -6 -185 -2 192 -2 193
188 2 187 3 2 150 c1 93 -1 142 -7 130 -5 -11 -9 -73 -9 -137 -1 -87 -4 -118
-13 -119 -7 -1 -92 -2 -188 -3 l-175 -1 -3 -207 -2 -208 240 0 c233 0 240 -1
240 -20 0 -11 7 -20 15 -20 13 0 15 -25 15 -165 0 -165 0 -165 -22 -165 -21 1
-21 2 -5 11 15 9 17 27 17 154 0 192 -19 203 -22 13 l-3 -143 -410 0 -410 0
-3 863 c-1 474 -6 862 -11 862 -7 0 -68 -82 -97 -131 -6 -11 -18 -27 -27 -37
-10 -10 -17 -22 -17 -26 0 -4 -5 -12 -11 -19 -5 -7 -29 -41 -53 -77 -84 -128
-127 -190 -131 -190 -7 0 8 34 22 48 7 7 13 22 13 33 0 11 4 18 9 15 5 -3 15
9 22 27 7 17 16 34 20 37 12 9 79 119 79 130 0 6 -10 10 -22 8 -22 -3 -83
-114 -206 -373 -24 -49 -54 -110 -68 -135 -23 -39 -24 -49 -14 -75 6 -16 12
-34 14 -40 1 -5 21 -58 44 -117 24 -60 40 -113 36 -120 -4 -6 -3 -8 3 -5 11 7
29 -30 35 -68 2 -11 9 -26 16 -33 6 -7 12 -22 12 -32 0 -10 5 -22 11 -25 6 -4
8 -14 5 -22 -3 -8 -2 -11 4 -8 5 3 12 -11 16 -32 4 -21 13 -47 19 -58 7 -11
18 -38 25 -60 7 -22 17 -45 22 -52 5 -7 6 -18 2 -24 -5 -8 -3 -9 6 -4 10 6 12
3 8 -13 -4 -12 -3 -20 1 -18 8 5 37 -63 33 -76 -1 -4 14 -40 33 -79 49 -101
51 -109 24 -109 -18 0 -20 3 -11 12 7 7 12 14 12 17 0 4 -77 6 -170 6 -132 0
-169 -3 -165 -12 2 -7 0 -13 -5 -13 -6 0 -10 5 -10 10 0 6 -7 10 -15 10 -19 0
-23 9 -100 211 -37 96 -80 206 -96 245 -16 40 -34 85 -40 100 l-11 29 -18 -35
c-17 -32 -19 -61 -20 -307 l0 -273 -30 0 c-16 0 -30 4 -30 8 0 5 10 8 23 8
l22 -1 5 275 c4 237 7 279 23 307 31 58 16 75 -18 20 -18 -30 -20 -53 -23
-310 l-3 -277 -172 2 -172 3 -5 565 c-3 344 -8 543 -13 510 -4 -30 -11 -68
-13 -83 l-6 -28 -79 3 -79 3 0 -330 c0 -291 -2 -337 -18 -390 -46 -150 -167
-262 -320 -294 -73 -15 -186 -14 -250 3 -68 18 -174 82 -233 139 -59 58 -115
166 -123 237 -11 110 -18 1144 -8 1190 6 24 8 47 3 50 -4 3 -18 23 -31 45 -13
22 -42 63 -64 90 -23 28 -43 52 -45 55 -2 3 -6 -1 -8 -8 -3 -6 -9 -9 -15 -6
-6 4 -8 -1 -4 -13 11 -34 9 -135 -2 -142 -8 -5 -14 -126 -18 -389 -7 -352 -6
-382 9 -382 10 0 17 4 17 8 0 9 130 86 135 80 9 -9 -16 -28 -87 -67 l-78 -43
-2 -416 -3 -417 -30 -2 -30 -2 27 10 28 11 -1 676 c-1 372 -5 688 -9 702 -9
28 -13 -172 -16 -770 -1 -217 -2 -441 -3 -498 l-1 -103 -170 2 -170 3 -1 216
c0 118 -3 242 -6 275 -5 70 -6 119 0 193 7 88 -8 58 -30 -61 -12 -61 -34 -168
-48 -237 -15 -69 -39 -183 -54 -255 l-27 -130 -123 -1 c-116 -1 -123 0 -131
20 -5 12 -30 125 -56 251 -78 386 -72 384 -73 18 l-1 -323 -31 0 c-17 0 -28 4
-24 10 3 6 15 10 26 10 18 0 19 10 18 358 -1 196 -5 371 -9 387 -4 17 -8 -128
-9 -321 0 -193 -4 -366 -7 -383 l-6 -31 -147 0 c-80 0 -156 3 -168 6 l-23 6 0
898 0 898 63 7 c34 3 134 5 222 3 202 -5 203 -6 229 -148 9 -52 21 -114 26
-136 18 -79 88 -439 95 -488 10 -62 18 -47 40 72 l18 94 -31 176 c-18 98 -41
238 -53 312 -11 74 -34 205 -50 290 -33 180 -46 290 -33 290 12 0 29 -73 53
-230 11 -69 36 -215 55 -325 20 -110 44 -249 54 -310 11 -60 22 -103 25 -95 4
8 28 123 55 255 36 178 52 240 62 241 8 1 68 2 134 3 113 1 118 2 113 21 -5
18 -2 19 36 13 56 -10 173 -10 183 -1 4 5 0 16 -9 26 -10 10 -17 22 -17 26 0
6 -54 79 -132 181 -4 6 -24 33 -45 60 -20 28 -48 66 -63 85 -15 19 -53 71 -86
115 -32 44 -69 94 -82 110 -12 17 -34 47 -47 68 -14 21 -35 47 -45 57 -11 11
-20 24 -20 28 0 5 -12 22 -26 38 -26 30 -94 130 -94 140 0 8 -141 197 -164
219 -12 11 -29 31 -39 45 -18 25 -18 25 -11 -30 14 -121 19 -189 13 -182 -7 9
-46 176 -58 253 -9 52 -24 76 -210 328 -111 150 -201 276 -201 281 0 4 -35 55
-77 112 -43 57 -100 134 -128 172 -47 66 -235 321 -275 376 -10 14 -78 106
-151 205 -72 99 -141 191 -151 205 -11 14 -75 100 -141 192 -67 92 -206 281
-309 422 -104 140 -188 259 -188 264 0 5 24 13 53 16 28 4 117 16 197 27 80
11 212 28 294 39 81 10 151 21 154 25 5 5 -36 103 -48 115 -3 3 -21 41 -40 85
-18 44 -37 82 -41 85 -3 3 -9 15 -13 28 -8 25 -128 280 -153 326 l-16 29 154
-7 c85 -4 244 -13 354 -21 110 -7 241 -15 290 -17 l90 -3 -3 45 c-2 25 -17
122 -33 215 -62 360 -89 516 -89 520 0 3 -547 5 -1215 5 l-1215 0 0 -4170z
m9610 2940 c63 -5 223 -14 355 -20 132 -7 243 -15 247 -18 3 -4 -88 -104 -204
-222 -116 -118 -310 -317 -432 -441 -686 -700 -908 -926 -1156 -1177 -152
-152 -291 -295 -309 -317 -41 -49 -709 -725 -768 -777 -49 -44 -63 -49 -34
-12 12 15 21 33 21 41 0 10 6 13 15 9 10 -3 18 1 22 12 4 9 11 20 17 24 6 4
11 11 11 15 1 4 14 29 30 54 59 93 90 143 105 168 8 14 21 30 28 34 6 4 12 17
12 27 0 11 4 20 9 20 5 0 24 24 42 53 18 28 80 124 138 212 58 88 108 164 110
170 2 5 19 31 38 57 18 26 33 52 33 57 0 5 12 22 28 38 15 17 34 43 42 59 8
16 26 45 41 64 14 19 35 53 46 75 21 43 43 82 56 99 11 15 297 449 297 452 0
2 91 141 120 184 63 93 504 763 510 775 3 6 49 77 103 158 l98 149 107 -7 c59
-3 159 -10 222 -15z m-5353 -466 c-3 -3 -12 -4 -19 -1 -8 3 -5 6 6 6 11 1 17
-2 13 -5z m3230 -120 c-3 -3 -12 -4 -19 -1 -8 3 -5 6 6 6 11 1 17 -2 13 -5z
m-4362 -104 c3 -6 -1 -7 -9 -4 -18 7 -21 14 -7 14 6 0 13 -4 16 -10z m-188
-86 c-3 -3 -12 -4 -19 -1 -8 3 -5 6 6 6 11 1 17 -2 13 -5z m4530 -46 c-3 -8
-6 -5 -6 6 -1 11 2 17 5 13 3 -3 4 -12 1 -19z m55 0 c-7 -7 -12 -8 -12 -2 0
14 12 26 19 19 2 -3 -1 -11 -7 -17z m-4675 -34 c-3 -3 -12 -4 -19 -1 -8 3 -5
6 6 6 11 1 17 -2 13 -5z m1440 0 c-3 -3 -12 -4 -19 -1 -8 3 -5 6 6 6 11 1 17
-2 13 -5z m3533 2 c0 -2 -7 -7 -16 -10 -8 -3 -12 -2 -9 4 6 10 25 14 25 6z
m-4893 -32 c-3 -3 -12 -4 -19 -1 -8 3 -5 6 6 6 11 1 17 -2 13 -5z m1513 -8 c0
-7 -50 -13 -55 -7 -2 4 10 8 26 9 16 1 29 1 29 -2z m6 -48 c-9 -12 -16 -19
-16 -15 0 11 24 47 28 42 2 -2 -3 -14 -12 -27z m3349 22 c-27 -12 -43 -12 -25
0 8 5 22 9 30 9 10 0 8 -3 -5 -9z m1610 -50 c3 -5 1 -10 -4 -10 -6 0 -11 5
-11 10 0 6 2 10 4 10 3 0 8 -4 11 -10z m-5906 -49 c-6 -16 -17 -32 -26 -35
-14 -6 -14 -4 -1 16 8 13 18 29 22 36 13 21 15 13 5 -17z m-634 9 c3 -5 1 -10
-4 -10 -6 0 -11 5 -11 10 0 6 2 10 4 10 3 0 8 -4 11 -10z m-170 -10 c3 -5 1
-10 -4 -10 -6 0 -11 5 -11 10 0 6 2 10 4 10 3 0 8 -4 11 -10z m705 0 c0 -5 -2
-10 -4 -10 -3 0 -8 5 -11 10 -3 6 -1 10 4 10 6 0 11 -4 11 -10z m4617 4 c-3
-3 -12 -4 -19 -1 -8 3 -5 6 6 6 11 1 17 -2 13 -5z m-5179 -13 c11 -6 11 -10 0
-18 -22 -17 -45 -26 -25 -10 26 22 20 32 -8 13 -34 -22 -45 -20 -15 4 28 22
30 23 48 11z m172 -1 c0 -5 -5 -10 -11 -10 -5 0 -7 5 -4 10 3 6 8 10 11 10 2
0 4 -4 4 -10z m176 -27 c-8 -15 -15 -22 -16 -15 0 14 22 53 28 47 2 -2 -3 -16
-12 -32z m3310 19 c9 -14 8 -22 -2 -37 -8 -10 -14 -16 -14 -13 0 4 -3 15 -6
25 -5 15 -4 15 5 3 9 -13 11 -13 11 1 0 8 -5 20 -12 27 -7 7 -8 12 -2 12 5 0
14 -8 20 -18z m-3356 2 c0 -3 -7 -12 -15 -20 -16 -17 -18 -14 -9 10 6 15 24
23 24 10z m120 -4 c0 -5 -5 -10 -11 -10 -5 0 -7 5 -4 10 3 6 8 10 11 10 2 0 4
-4 4 -10z m123 -10 c3 -11 1 -18 -4 -14 -5 3 -9 -2 -9 -11 0 -12 5 -15 18 -10
14 5 15 4 5 -6 -19 -19 -36 2 -27 35 7 31 10 32 17 6z m277 8 c0 -7 -9 -24
-21 -38 l-20 -25 18 38 c18 39 23 45 23 25z m92 -10 c-7 -7 -12 -8 -12 -2 0
14 12 26 19 19 2 -3 -1 -11 -7 -17z m-447 -18 c-9 -16 -21 -30 -28 -29 -9 0
-9 2 1 6 6 2 12 10 12 17 0 11 19 36 27 36 2 0 -3 -13 -12 -30z m237 8 c-7 -7
-12 -8 -12 -2 0 14 12 26 19 19 2 -3 -1 -11 -7 -17z m-872 -10 c0 -6 -6 -5
-15 2 -8 7 -15 14 -15 16 0 2 7 1 15 -2 8 -4 15 -11 15 -16z m913 7 c-3 -9 -8
-14 -10 -11 -3 3 -2 9 2 15 9 16 15 13 8 -4z m1857 5 c0 -5 -4 -10 -9 -10 -6
0 -13 5 -16 10 -3 6 1 10 9 10 9 0 16 -4 16 -10z m155 0 c-3 -5 -11 -10 -16
-10 -6 0 -7 5 -4 10 3 6 11 10 16 10 6 0 7 -4 4 -10z m2418 3 c-7 -2 -19 -2
-25 0 -7 3 -2 5 12 5 14 0 19 -2 13 -5z m44 -11 c-15 -10 -24 -22 -20 -25 3
-4 -8 -2 -25 4 -35 12 -45 24 -12 14 12 -4 26 0 36 9 8 9 23 16 32 16 12 0 9
-6 -11 -18z m300 -60 c-3 -10 -5 -5 -6 10 0 14 -6 28 -12 30 -6 2 -7 11 -3 23
7 17 9 15 16 -14 5 -18 7 -40 5 -49z m-5390 27 c-12 -20 -27 -25 -27 -10 0 5
6 12 13 14 7 4 2 9 -12 13 -23 7 -23 8 -5 14 28 11 46 -7 31 -31z m83 37 c0
-2 -8 -10 -17 -17 -16 -13 -17 -12 -4 4 13 16 21 21 21 13z m200 -17 c0 -6 -4
-7 -10 -4 -5 3 -10 11 -10 16 0 6 5 7 10 4 6 -3 10 -11 10 -16z m446 -5 c-4
-9 -9 -15 -11 -12 -3 3 -3 13 1 22 4 9 9 15 11 12 3 -3 3 -13 -1 -22z m-1250
-21 c-11 -11 -17 4 -9 23 7 18 8 18 11 1 2 -10 1 -21 -2 -24z m396 7 c-12 -11
-27 -20 -34 -20 -7 0 -2 9 12 20 33 26 50 26 22 0z m258 10 c0 -5 -4 -10 -10
-10 -5 0 -10 5 -10 10 0 6 5 10 10 10 6 0 10 -4 10 -10z m27 -12 c-3 -8 -6 -5
-6 6 -1 11 2 17 5 13 3 -3 4 -12 1 -19z m410 1 c2 -17 -1 -18 -13 -8 -13 11
-10 20 11 29 1 0 1 -9 2 -21z m363 -16 c-11 -17 -11 -17 -6 0 3 10 6 24 7 30
0 9 2 9 5 0 3 -7 0 -20 -6 -30z m1901 14 c-10 -9 -11 -8 -5 6 3 10 9 15 12 12
3 -3 0 -11 -7 -18z m-3196 1 c-11 -6 -26 -18 -32 -26 -12 -14 -13 -14 -13 0 0
8 10 20 23 26 29 14 48 15 22 0z m313 -7 c-6 -11 -20 -19 -30 -18 -17 1 -16 3
4 19 30 23 41 23 26 -1z m317 9 c3 -5 2 -10 -4 -10 -5 0 -13 5 -16 10 -3 6 -2
10 4 10 5 0 13 -4 16 -10z m338 -10 c-7 -25 -23 -27 -18 -2 2 9 4 18 4 20 1 1
5 2 10 2 5 0 7 -9 4 -20z m161 5 c-4 -8 -13 -15 -22 -15 -13 0 -12 3 4 15 24
18 25 18 18 0z m4383 9 c-3 -3 -12 -4 -19 -1 -8 3 -5 6 6 6 11 1 17 -2 13 -5z
m-2327 -42 c0 -1 -9 2 -20 8 -11 6 -20 15 -20 20 0 6 9 2 20 -7 11 -10 20 -19
20 -21z m2270 28 c-8 -5 -19 -10 -25 -10 -5 0 -3 5 5 10 8 5 20 10 25 10 6 0
3 -5 -5 -10z m-5583 -22 c-3 -8 -6 -5 -6 6 -1 11 2 17 5 13 3 -3 4 -12 1 -19z
m218 12 c-3 -5 -11 -10 -16 -10 -6 0 -7 5 -4 10 3 6 11 10 16 10 6 0 7 -4 4
-10z m1348 -5 c-3 -9 -8 -14 -10 -11 -3 3 -2 9 2 15 9 16 15 13 8 -4z m1839
-7 c-7 -7 -12 -8 -12 -2 0 14 12 26 19 19 2 -3 -1 -11 -7 -17z m1843 2 c10
-11 16 -20 13 -20 -3 0 -13 9 -23 20 -10 11 -16 20 -13 20 3 0 13 -9 23 -20z
m425 5 c0 -8 -4 -15 -10 -15 -5 0 -10 7 -10 15 0 8 5 15 10 15 6 0 10 -7 10
-15z m177 -7 c-3 -8 -6 -5 -6 6 -1 11 2 17 5 13 3 -3 4 -12 1 -19z m-5877 -28
c0 -21 -25 -4 -28 20 -4 21 -2 22 12 7 9 -8 16 -21 16 -27z m570 36 c0 -2 -7
-7 -16 -10 -8 -3 -12 -2 -9 4 6 10 25 14 25 6z m47 -18 c-3 -8 -6 -5 -6 6 -1
11 2 17 5 13 3 -3 4 -12 1 -19z m1170 -10 c-3 -7 -5 -2 -5 12 0 14 2 19 5 13
2 -7 2 -19 0 -25z m3873 12 c10 -19 1 -28 -14 -12 -4 4 -12 8 -17 8 -19 3 -20
4 -14 14 10 17 34 11 45 -10z m-5450 0 c0 -5 -4 -10 -9 -10 -6 0 -13 5 -16 10
-3 6 1 10 9 10 9 0 16 -4 16 -10z m280 -10 c0 -11 -4 -20 -8 -20 -4 0 -8 9 -9
20 -1 11 2 20 8 20 5 0 9 -9 9 -20z m174 11 c4 -5 -3 -7 -14 -4 -23 6 -26 13
-6 13 8 0 17 -4 20 -9z m2806 -1 c0 -5 -8 -10 -17 -10 -15 0 -16 2 -3 10 19
12 20 12 20 0z m-3305 -20 c3 -5 2 -10 -4 -10 -5 0 -13 5 -16 10 -3 6 -2 10 4
10 5 0 13 -4 16 -10z m245 1 c0 -5 8 -12 18 -14 13 -4 14 -5 1 -6 -8 0 -24 6
-35 14 -17 13 -17 14 -1 15 9 0 17 -4 17 -9z m150 -11 c0 -5 8 -10 17 -10 9 0
14 -3 10 -6 -8 -8 -47 5 -47 17 0 5 5 9 10 9 6 0 10 -4 10 -10z m5146 -55 c-4
-75 -9 -86 -26 -55 -13 25 -4 42 10 20 7 -11 8 -6 6 15 -4 30 3 85 10 85 2 0
2 -29 0 -65z m-3716 45 c0 -5 -4 -10 -10 -10 -5 0 -10 5 -10 10 0 6 5 10 10
10 6 0 10 -4 10 -10z m3690 0 c0 -5 -2 -10 -4 -10 -3 0 -8 5 -11 10 -3 6 -1
10 4 10 6 0 11 -4 11 -10z m-5206 -15 c-7 -17 -20 -20 -28 -6 -7 10 3 21 20
21 8 0 11 -6 8 -15z m5170 -11 c7 -19 2 -18 -19 6 -16 17 -16 20 -3 15 9 -4
19 -13 22 -21z m-5274 6 c0 -5 -4 -10 -10 -10 -5 0 -10 5 -10 10 0 6 5 10 10
10 6 0 10 -4 10 -10z m57 4 c-3 -3 -12 -4 -19 -1 -8 3 -5 6 6 6 11 1 17 -2 13
-5z m1670 -19 c-4 -8 -11 -15 -17 -15 -6 0 -6 7 2 20 14 22 24 19 15 -5z
m2818 14 c11 -16 1 -19 -13 -3 -7 8 -8 14 -3 14 5 0 13 -5 16 -11z m421 -26
c-4 -4 -11 -1 -16 7 -16 25 -11 35 7 17 9 -9 13 -20 9 -24z m114 17 c6 -11 8
-20 6 -20 -3 0 -10 9 -16 20 -6 11 -8 20 -6 20 3 0 10 -9 16 -20z m480 10 c0
-3 -7 -15 -15 -26 -14 -18 -14 -18 -15 7 0 16 5 26 15 26 8 0 15 -3 15 -7z
m-866 -59 c4 -7 -9 0 -28 15 -19 16 -35 33 -35 37 -1 12 56 -35 63 -52z m823
22 c-3 -10 -5 -4 -5 12 0 17 2 24 5 18 2 -7 2 -21 0 -30z m-5472 8 c16 -7 11
-9 -22 -12 -33 -4 -39 -2 -31 8 12 15 24 15 53 4z m4551 -29 c-6 -5 -36 23
-36 34 0 4 9 -1 20 -11 11 -10 18 -20 16 -23z m701 17 c-3 -12 -1 -32 4 -46 5
-14 5 -22 0 -18 -13 7 -24 62 -16 75 11 17 18 11 12 -11z m-457 -16 c0 -13 3
-13 15 -3 16 14 18 10 9 -14 -9 -23 -17 -20 -37 14 -15 25 -16 29 -2 24 8 -3
15 -13 15 -21z m147 13 c-3 -8 -2 -16 2 -18 5 -2 11 -14 15 -28 6 -22 5 -21
-14 7 -12 18 -19 37 -15 43 9 15 18 12 12 -4z m-188 -50 c-2 -2 -13 8 -23 22
l-19 27 24 -22 c12 -12 21 -24 18 -27z m746 13 c-9 -17 -19 -28 -22 -25 -8 8
17 56 29 56 5 0 1 -14 -7 -31z m-5549 13 c-15 -3 -16 -6 -5 -13 10 -6 4 -9
-18 -9 -17 0 -35 -4 -38 -10 -3 -5 -13 -10 -21 -10 -20 0 -17 20 4 20 16 1 16
2 1 13 -14 11 -8 13 40 13 31 0 47 -2 37 -4z m4744 -1 c0 -5 -7 -11 -15 -15
-15 -5 -20 5 -8 17 9 10 23 9 23 -2z m-4621 -17 c8 -7 -54 -2 -79 6 -17 6 -9
7 25 3 28 -3 52 -7 54 -9z m4531 -19 c19 -19 31 -35 28 -35 -6 0 -68 58 -68
65 0 10 6 5 40 -30z m254 29 c19 -7 21 -35 5 -51 -7 -7 -9 -20 -5 -29 6 -15 9
-14 21 10 8 15 12 33 8 40 -3 6 4 0 17 -13 14 -14 23 -35 22 -52 0 -16 4 -29
9 -29 5 0 9 5 9 10 0 6 7 10 15 10 18 0 20 -17 3 -23 -7 -2 -1 -4 14 -3 33 1
38 28 12 64 -9 13 -13 26 -10 29 3 3 1 12 -6 20 -6 7 -7 17 -3 21 4 4 10 1 12
-6 3 -6 9 -10 14 -6 5 3 9 -2 9 -10 0 -8 5 -18 11 -22 8 -5 10 1 7 20 -4 18
-2 24 4 18 15 -15 5 -47 -14 -46 -10 1 -14 -4 -11 -13 3 -8 13 -11 24 -8 22 7
24 -7 7 -35 -17 -26 0 -40 18 -15 14 19 14 26 0 70 -4 11 2 3 13 -17 32 -56
62 -67 42 -15 -6 15 -6 29 -2 32 10 5 24 -32 21 -55 -1 -8 2 -11 6 -7 5 5 13
-6 19 -24 15 -45 40 -53 32 -10 -4 18 -2 31 3 31 6 0 10 10 10 21 0 18 2 19
15 9 8 -7 15 -18 15 -25 0 -7 7 -16 16 -19 23 -9 28 -1 9 14 -8 7 -15 20 -15
29 0 10 7 6 19 -13 11 -17 18 -33 15 -37 -6 -11 34 -31 46 -24 14 9 12 33 -3
42 -27 16 -47 57 -36 73 9 13 10 12 6 -2 -8 -23 23 -32 42 -12 9 9 11 14 6 11
-6 -3 -17 -2 -25 4 -10 6 11 9 61 9 l76 0 -5 -46 c-4 -43 -35 -93 -54 -86 -5
1 -8 -7 -8 -18 0 -11 -11 -38 -25 -60 -14 -22 -25 -44 -25 -49 0 -5 -11 -19
-25 -32 -13 -13 -25 -29 -25 -35 0 -7 -7 -14 -15 -18 -8 -3 -15 -17 -15 -31 0
-25 -14 -33 -25 -15 -4 6 -11 8 -16 4 -5 -3 -16 0 -25 6 -12 11 -12 14 3 26
16 13 15 13 -7 4 -22 -10 -38 -3 -140 57 -132 78 -339 179 -388 189 -28 5 -24
14 6 14 18 0 32 5 32 10 0 6 -5 10 -11 10 -8 0 -8 4 0 14 15 18 10 39 -11 48
-10 4 -18 13 -18 20 0 9 3 9 11 1 9 -9 15 -8 26 3 22 22 38 17 18 -6 -11 -12
-13 -20 -6 -20 7 0 9 -4 6 -10 -3 -5 -2 -10 4 -10 5 0 13 5 16 10 3 6 1 10 -5
10 -6 0 -8 5 -5 10 11 18 21 11 23 -17 3 -36 22 -83 33 -83 13 0 11 14 -6 36
-14 19 -21 54 -8 41 3 -4 13 -1 21 6 13 10 14 8 8 -16 -4 -17 -3 -26 2 -23 6
3 15 -1 22 -9 17 -21 30 -9 30 29 0 17 6 38 13 46 10 12 9 12 -6 1 -22 -17
-34 -7 -17 14 14 17 13 17 34 9z m-309 -44 c-2 -3 11 -12 28 -20 17 -7 26 -15
19 -18 -7 -2 -12 -8 -12 -14 0 -5 9 -7 19 -3 11 3 22 1 25 -4 8 -12 -26 -23
-47 -15 -9 3 -13 12 -10 22 5 14 3 15 -8 5 -7 -7 -17 -13 -23 -13 -5 0 1 9 14
20 15 13 18 20 9 20 -14 0 -59 42 -59 54 0 4 11 -1 24 -11 13 -10 22 -20 21
-23z m650 8 l16 -33 -21 24 c-11 13 -20 27 -20 32 0 18 10 8 25 -23z m-3154
-2 c-26 -27 -72 -26 -49 1 8 10 14 11 16 4 2 -7 11 -6 25 4 31 22 34 18 8 -9z
m2409 -21 l25 -30 -33 29 c-17 17 -32 34 -32 40 0 6 3 6 8 1 4 -6 18 -23 32
-40z m-120 21 c0 -11 -19 -15 -25 -6 -3 5 1 10 9 10 9 0 16 -2 16 -4z m-4495
-26 c25 -11 -1 -11 -35 0 -20 6 -21 8 -5 8 11 0 29 -3 40 -8z m100 0 c-16 -4
-39 -8 -50 -9 -16 -1 -17 1 -5 9 8 5 31 9 50 9 l35 -1 -30 -8z m1496 -17 c-8
-15 -10 -15 -11 -2 0 17 10 32 18 25 2 -3 -1 -13 -7 -23z m182 12 c-3 -9 -33
-30 -67 -48 -81 -42 -87 -44 -51 -13 17 14 46 31 65 37 19 7 39 18 43 25 11
19 18 18 10 -1z m477 11 c0 -2 -7 -7 -16 -10 -8 -3 -12 -2 -9 4 6 10 25 14 25
6z m-821 -68 c-12 -23 -36 -66 -54 -94 -52 -81 -57 -116 -12 -76 12 10 17 11
12 3 -6 -10 -4 -12 4 -7 7 5 10 14 7 21 -4 12 44 90 64 105 4 3 19 24 33 47
14 23 30 44 36 47 12 8 -27 -73 -50 -103 -10 -13 -16 -27 -13 -32 3 -5 -9 -29
-26 -53 -27 -41 -36 -46 -90 -57 -35 -7 -61 -17 -65 -27 -8 -23 -3 -23 48 -6
36 12 50 13 67 4 17 -9 24 -9 33 3 9 11 43 16 122 20 83 4 100 3 70 -4 -122
-30 -293 -86 -310 -101 -9 -9 53 -5 137 8 14 2 68 8 119 14 93 9 127 7 73 -5
-16 -4 -48 -15 -71 -26 -24 -10 -47 -19 -53 -19 -6 0 -18 -4 -28 -9 -31 -17
-151 -71 -156 -71 -6 0 -129 -56 -166 -75 -20 -11 -131 -13 -540 -13 -283 0
-536 3 -562 6 l-46 7 29 35 c21 24 29 29 29 17 0 -24 17 -21 26 5 11 35 59
109 66 102 4 -3 4 3 2 13 -3 11 2 25 10 32 9 8 16 19 16 25 0 7 7 21 16 32 15
19 16 19 9 -1 -4 -11 -18 -49 -32 -85 -50 -133 -52 -139 -42 -145 5 -4 16 9
24 28 7 18 21 39 30 47 8 7 23 28 31 46 9 19 21 31 26 28 6 -4 6 -10 -1 -17
-14 -14 -15 -60 -1 -52 5 3 26 41 46 83 20 42 39 79 43 82 3 3 21 34 38 70 18
36 33 59 33 51 0 -12 -43 -112 -75 -174 -8 -16 -15 -41 -15 -55 1 -24 2 -25
11 -8 9 15 13 16 21 5 8 -11 8 -10 4 4 -6 19 41 127 55 127 4 0 2 -21 -6 -47
-8 -27 -15 -49 -15 -51 0 -2 -4 0 -10 3 -5 3 -10 2 -10 -4 0 -5 5 -11 10 -13
7 -2 5 -16 -6 -36 -9 -18 -19 -52 -22 -75 -5 -38 -4 -41 11 -28 10 7 17 20 17
28 0 7 21 66 46 131 26 64 51 128 55 142 l9 25 -4 -25 c-3 -14 -14 -68 -25
-120 -12 -52 -21 -103 -21 -112 0 -38 16 -15 49 68 34 86 54 113 26 34 -17
-48 -19 -70 -6 -70 10 0 38 65 66 152 11 32 21 56 23 53 2 -2 -3 -25 -11 -52
-8 -26 -18 -59 -21 -73 l-5 -25 19 23 c10 12 26 46 36 75 9 28 26 65 37 82 10
16 16 21 12 10 -3 -11 -13 -52 -20 -92 -8 -40 -19 -82 -25 -94 -10 -17 -9 -23
1 -30 9 -5 16 -3 19 7 3 9 10 15 15 14 6 -1 20 24 33 57 27 67 46 93 32 42 -6
-19 -12 -55 -14 -81 -4 -37 -2 -46 10 -41 8 3 14 14 14 24 0 10 4 19 9 19 5 0
14 20 20 45 6 25 14 45 17 45 9 0 -8 -74 -26 -112 -10 -21 -14 -40 -10 -43 10
-6 42 44 65 103 19 46 34 51 18 5 -17 -45 -36 -134 -30 -139 7 -7 42 28 57 57
8 14 15 18 19 10 4 -7 28 31 56 89 27 55 53 100 58 100 5 0 -15 -45 -44 -100
-29 -54 -50 -102 -47 -106 12 -12 104 90 132 146 40 82 88 159 80 130 -3 -14
-13 -38 -21 -53 -7 -15 -23 -57 -34 -92 -11 -35 -24 -67 -29 -70 -12 -7 -14
-45 -2 -45 4 0 30 32 57 69 28 38 52 67 54 65 2 -2 -3 -12 -11 -21 -19 -24
-98 -162 -98 -174 0 -26 24 0 80 87 52 80 64 94 72 79 9 -15 11 -15 25 5 14
19 17 20 32 6 16 -15 18 -14 17 6 -1 16 4 23 16 22 10 -1 14 4 11 12 -2 7 5
19 16 26 12 7 21 17 21 21 0 5 6 15 14 23 11 11 16 11 19 1 3 -7 6 -4 6 6 1
20 31 56 31 38 0 -6 5 -11 11 -11 6 0 8 8 4 19 -3 12 4 29 22 48 16 17 29 30
31 28 2 -2 -7 -23 -19 -47z m3911 37 c0 -8 -4 -15 -10 -15 -5 0 -10 7 -10 15
0 8 5 15 10 15 6 0 10 -7 10 -15z m-5207 -22 c-7 -2 -21 -2 -30 0 -10 3 -4 5
12 5 17 0 24 -2 18 -5z m892 -40 c-9 -15 -13 -19 -10 -8 4 11 10 29 13 40 3
11 7 14 9 8 3 -7 -3 -24 -12 -40z m545 27 c-6 -11 -15 -20 -20 -20 -6 0 -5 9
2 20 7 11 16 20 21 20 4 0 3 -9 -3 -20z m636 -10 c21 -8 25 -13 16 -22 -9 -9
-17 -7 -34 10 -25 25 -22 27 18 12z m1549 -5 c-35 -16 -64 -20 -49 -6 10 10
39 18 64 19 8 0 2 -6 -15 -13z m354 -3 c-17 -12 -25 -12 -56 1 l-36 14 55 -1
c50 0 54 -2 37 -14z m-4051 -19 c-10 -2 -26 -2 -35 0 -10 3 -2 5 17 5 19 0 27
-2 18 -5z m2103 -25 c11 -20 11 -20 -15 -2 -28 21 -34 37 -11 28 9 -4 20 -15
26 -26z m2003 23 c11 -4 15 -10 10 -13 -5 -4 -18 0 -29 8 -20 15 -12 17 19 5z
m-3487 -23 c-3 -8 -6 -5 -6 6 -1 11 2 17 5 13 3 -3 4 -12 1 -19z m933 12 c0
-5 -5 -10 -11 -10 -5 0 -7 5 -4 10 3 6 8 10 11 10 2 0 4 -4 4 -10z m130 -14
c-25 -24 -108 -66 -130 -66 -12 0 -18 -4 -15 -10 3 -5 1 -10 -4 -10 -6 0 -11
5 -11 11 0 5 -5 7 -10 4 -6 -4 -8 -11 -5 -16 4 -5 -2 -10 -12 -11 -10 0 -23
-2 -30 -2 -6 -1 -15 -5 -19 -9 -4 -4 -16 -7 -26 -7 -23 0 -21 31 2 38 13 5 13
3 1 -12 -12 -14 -12 -16 3 -10 9 3 16 10 16 16 0 5 8 7 19 3 13 -4 23 2 34 18
14 22 63 39 119 42 9 0 21 5 25 9 5 5 2 6 -7 1 -10 -5 -12 -5 -5 3 6 6 21 12
35 15 14 2 27 5 30 6 2 0 -2 -5 -10 -13z m-739 -27 c-5 -13 -10 -19 -10 -12
-1 15 10 45 15 40 3 -2 0 -15 -5 -28z m1629 1 c0 -5 -4 -10 -10 -10 -5 0 -10
5 -10 10 0 6 5 10 10 10 6 0 10 -4 10 -10z m1445 -48 c-6 -6 -45 28 -45 39 0
5 11 -1 25 -13 14 -12 23 -24 20 -26z m45 27 c0 -14 -17 -10 -23 5 -4 10 -1
13 9 9 7 -3 14 -9 14 -14z m150 12 c0 -5 -7 -12 -16 -15 -14 -5 -15 -4 -4 9
14 17 20 19 20 6z m-3044 -17 c-9 -8 -16 -20 -16 -26 0 -6 -3 -9 -6 -6 -8 9
14 48 27 48 6 0 3 -7 -5 -16z m3070 -12 c-18 -16 -18 -16 -6 6 6 13 14 21 18
18 3 -4 -2 -14 -12 -24z m92 -40 c-1 -32 2 -64 6 -72 5 -8 -5 -2 -22 14 -18
17 -32 34 -32 40 0 19 35 84 43 79 5 -3 7 -30 5 -61z m-4402 43 c-15 -8 -33
-12 -39 -8 -12 7 17 21 48 22 16 1 14 -2 -9 -14z m2574 5 c0 -5 -5 -10 -11
-10 -5 0 -7 5 -4 10 3 6 8 10 11 10 2 0 4 -4 4 -10z m144 -22 c-4 -13 -7 -27
-5 -33 1 -5 -3 -4 -10 2 -10 10 -10 18 0 39 14 32 26 26 15 -8z m-1968 -4 c-4
-9 -9 -15 -11 -12 -3 3 -3 13 1 22 4 9 9 15 11 12 3 -3 3 -13 -1 -22z m1450
-2 c11 -11 26 -21 34 -24 10 -3 7 -10 -14 -23 -23 -15 -29 -16 -36 -4 -6 8 -4
16 3 21 8 5 6 13 -7 27 -24 26 -7 28 20 3z m51 12 c-3 -3 -12 -4 -19 -1 -8 3
-5 6 6 6 11 1 17 -2 13 -5z m357 -33 c-8 -9 -22 12 -17 26 6 15 7 14 13 -3 4
-10 6 -21 4 -23z m56 30 c0 -5 -7 -16 -15 -25 -8 -8 -15 -20 -15 -26 0 -6 -4
-9 -9 -5 -6 3 -3 18 7 35 17 29 32 39 32 21z m236 -158 c9 -32 20 -62 24 -67
13 -14 21 30 10 58 -16 43 -11 54 7 16 18 -37 31 -50 48 -49 6 0 4 3 -3 6 -6
2 -10 8 -7 12 2 5 -5 27 -16 51 -11 23 -19 44 -16 46 2 2 13 -17 25 -44 11
-26 35 -78 53 -117 56 -126 61 -113 -39 -117 -48 -2 -96 -2 -107 0 -12 2 -37
29 -60 65 -22 34 -58 84 -80 112 -57 70 -59 74 -33 69 13 -2 17 -2 11 2 -18 8
-16 18 10 57 l23 34 19 -39 c21 -43 40 -51 31 -12 -4 15 -3 23 2 20 6 -3 13
-17 16 -30 10 -41 69 -166 78 -166 14 0 14 -1 -42 163 -16 49 -30 92 -30 95 1
18 61 -113 76 -165z m421 135 c-3 -7 -5 -2 -5 12 0 14 2 19 5 13 2 -7 2 -19 0
-25z m1420 10 c-3 -8 -6 -5 -6 6 -1 11 2 17 5 13 3 -3 4 -12 1 -19z m-404 -3
c-3 -9 -8 -14 -10 -11 -3 3 -2 9 2 15 9 16 15 13 8 -4z m-3532 -18 c-10 -9
-11 -8 -5 6 3 10 9 15 12 12 3 -3 0 -11 -7 -18z m3643 -47 c2 -36 7 -76 12
-90 l7 -25 -22 27 c-19 24 -21 34 -15 93 4 36 8 64 10 62 2 -1 5 -32 8 -67z
m97 -104 c7 -8 9 -2 5 19 -4 24 -3 23 7 -7 6 -20 15 -40 20 -44 4 -4 7 -14 7
-23 0 -9 5 -34 11 -55 8 -29 13 -35 19 -25 6 8 5 18 0 23 -6 6 -10 26 -10 46
0 19 -7 62 -14 95 -8 33 -13 61 -11 63 4 4 15 -33 46 -153 l17 -70 2 45 2 45
9 -33 c12 -41 33 -32 25 11 -3 17 -4 28 -1 25 5 -5 34 -100 38 -126 1 -10 -17
-14 -78 -14 l-80 0 -42 73 -42 73 1 105 1 105 29 -84 c15 -46 33 -89 39 -94z
m-1270 62 c7 -32 18 -59 27 -63 13 -5 12 -8 -4 -19 -10 -8 -23 -12 -27 -9 -5
3 -3 9 4 14 11 7 11 9 -1 9 -8 0 -25 22 -38 50 -26 57 -27 63 -13 68 6 2 11
-5 11 -17 0 -11 4 -22 9 -25 4 -3 7 16 6 42 -4 55 7 36 26 -50z m-941 61 c-14
-11 -38 -30 -54 -44 -16 -13 -33 -22 -38 -19 -20 12 -3 31 50 56 69 32 74 33
42 7z m1049 -29 l-1 -25 -8 25 c-4 14 -8 32 -9 40 -1 13 0 13 9 0 5 -8 9 -26
9 -40z m719 22 c14 -21 13 -22 -3 -16 -13 5 -16 4 -11 -4 4 -7 2 -12 -4 -12
-6 0 -10 8 -8 18 1 9 -1 23 -6 31 -15 23 16 7 32 -17z m-3792 -19 c-8 -15 -15
-25 -16 -21 0 12 23 58 27 54 3 -2 -2 -17 -11 -33z m2374 6 c0 -3 -6 -6 -14
-6 -8 0 -11 8 -8 20 4 14 7 16 13 5 5 -7 9 -16 9 -19z m669 -61 c1 -38 21 -46
21 -9 0 17 4 31 9 31 5 0 9 -14 9 -30 -1 -23 -7 -32 -25 -36 -13 -4 -25 -5
-27 -3 -2 2 -6 36 -9 74 -6 67 -5 68 8 35 7 -19 14 -47 14 -62z m-1189 52 c0
-6 -9 -2 -20 7 -11 10 -20 19 -20 21 0 1 9 -2 20 -8 11 -6 20 -15 20 -20z
m2657 -2 c-3 -7 -5 -2 -5 12 0 14 2 19 5 13 2 -7 2 -19 0 -25z m-4140 -10 c-3
-8 -6 -5 -6 6 -1 11 2 17 5 13 3 -3 4 -12 1 -19z m2762 -56 c1 -7 -3 -10 -9
-7 -5 3 -10 18 -9 33 0 24 1 25 9 7 5 -11 9 -26 9 -33z m44 28 c3 -11 1 -20
-4 -20 -5 0 -9 9 -9 20 0 11 2 20 4 20 2 0 6 -9 9 -20z m696 17 c-28 -22 -79
-46 -79 -37 0 6 15 17 33 25 29 13 56 20 46 12z m651 -13 c0 -8 -4 -12 -10 -9
-5 3 -10 10 -10 16 0 5 5 9 10 9 6 0 10 -7 10 -16z m-4546 -18 c-6 -16 -24
-23 -24 -8 0 10 22 33 27 28 2 -2 1 -11 -3 -20z m1926 8 c0 -8 5 -12 10 -9 6
3 10 -1 10 -10 0 -12 8 -10 40 10 22 14 40 21 40 15 0 -5 -4 -10 -8 -10 -5 0
-14 -12 -21 -26 -7 -17 -17 -24 -27 -20 -8 3 -12 2 -9 -3 3 -5 2 -12 -2 -14
-5 -3 -23 15 -41 39 -30 40 -31 44 -12 44 11 0 20 -7 20 -16z m2006 -9 c-11
-8 -24 -15 -28 -15 -5 0 -26 -11 -49 -25 -45 -29 -53 -27 -68 16 -8 23 -8 30
2 26 6 -2 12 -10 12 -18 0 -26 16 -26 73 2 62 31 88 37 58 14z m679 -75 c11 9
15 4 20 -27 3 -21 9 -49 12 -63 4 -14 6 -28 5 -32 -1 -5 5 -8 13 -8 14 0 20
22 16 63 -3 24 8 21 19 -5 7 -18 9 -11 9 31 1 73 8 61 16 -27 l7 -72 -44 0
c-49 0 -54 6 -79 85 -7 22 -17 45 -21 51 -4 6 -5 26 -1 45 l8 34 3 -43 c3 -36
6 -41 17 -32z m-2731 35 c-4 -11 -2 -13 9 -9 21 8 45 -35 26 -47 -16 -9 -55
44 -44 61 9 15 15 12 9 -5z m107 -77 c-78 -79 -83 -82 -97 -64 -14 19 -20 45
-8 33 3 -3 18 5 33 19 14 13 31 22 38 20 7 -3 15 0 19 6 5 7 2 8 -7 3 -28 -17
2 9 48 40 26 18 50 31 52 29 2 -2 -33 -41 -78 -86z m828 -27 c17 -35 30 -66
27 -68 -11 -11 -36 7 -36 26 0 11 -5 23 -11 26 -6 4 -8 14 -5 22 3 8 2 12 -3
9 -5 -3 -14 13 -20 37 -7 23 -15 49 -17 57 -9 25 31 -42 65 -109z m968 57
c-13 -8 -27 9 -27 36 0 16 2 15 19 -5 13 -17 16 -26 8 -31z m900 0 c-2 -13 -4
-5 -4 17 -1 22 1 32 4 23 2 -10 2 -28 0 -40z m-952 11 c9 -17 15 -33 13 -35
-3 -2 -12 12 -21 31 -21 43 -13 47 8 4z m-835 -44 c32 -87 33 -95 22 -95 -6 0
-17 24 -25 53 -35 124 -34 143 3 42z m980 35 c-19 -16 -43 -32 -52 -35 -10 -4
-18 -11 -18 -17 0 -5 -7 -8 -15 -4 -8 3 -14 0 -12 -6 3 -17 -20 -21 -26 -4 -4
10 8 21 36 35 23 12 58 30 77 41 48 28 51 25 10 -10z m-2016 -5 c18 -27 20
-35 9 -35 -5 0 -16 14 -25 30 -20 36 -7 40 16 5z m1259 4 c4 -13 -5 -20 -35
-27 -34 -9 -39 -8 -34 5 3 8 6 18 6 23 0 8 21 16 47 16 6 1 14 -7 16 -17z m34
-1 c-3 -8 -6 -5 -6 6 -1 11 2 17 5 13 3 -3 4 -12 1 -19z m-1098 -63 c-50 -51
-73 -67 -100 -70 l-34 -4 50 45 c27 24 59 47 70 50 11 4 31 15 44 25 47 37 35
18 -30 -46z m981 45 c0 -23 -25 -27 -33 -6 -7 16 1 26 20 26 7 0 13 -9 13 -20z
m1753 -101 c-4 -4 -6 22 -3 59 l5 67 3 -59 c2 -32 -1 -63 -5 -67z m-313 -6 c0
-2 -4 -3 -9 -3 -5 0 -11 12 -15 28 -3 15 -8 38 -11 52 -3 14 3 3 15 -25 11
-27 20 -51 20 -52z m-585 71 c-11 -8 -29 -22 -40 -32 -35 -29 -76 -53 -86 -50
-19 6 77 80 118 91 29 7 29 7 8 -9z m-2730 -35 c-72 -34 -88 -38 -155 -38 -50
0 -68 3 -55 9 89 37 125 49 119 39 -5 -8 -3 -9 6 -4 7 4 27 9 44 10 17 1 38 4
46 7 81 33 78 18 -5 -23z m1880 31 c3 -5 1 -10 -4 -10 -6 0 -11 5 -11 10 0 6
2 10 4 10 3 0 8 -4 11 -10z m-1237 -27 c17 -19 27 -24 30 -15 3 10 9 9 23 -4
27 -24 24 -31 -11 -26 -18 3 -39 17 -55 38 -31 41 -23 45 13 7z m1317 5 c-11
-7 -24 -13 -30 -14 -5 -1 -17 -5 -26 -9 -10 -3 -20 -2 -23 4 -4 5 12 14 36 19
59 13 66 13 43 0z m-1047 -23 c-15 -14 -31 -25 -35 -25 -8 1 48 50 57 50 3 0
-7 -11 -22 -25z m1662 4 c0 -15 -22 -21 -31 -8 -14 22 -11 28 11 22 11 -3 20
-9 20 -14z m1097 -21 c-3 -7 -5 -2 -5 12 0 14 2 19 5 13 2 -7 2 -19 0 -25z
m-3612 12 c-3 -5 -11 -10 -16 -10 -6 0 -7 5 -4 10 3 6 11 10 16 10 6 0 7 -4 4
-10z m940 -10 c-10 -11 -21 -18 -23 -15 -3 3 3 12 14 20 27 20 30 18 9 -5z
m725 -1 c0 -6 -4 -7 -10 -4 -5 3 -10 11 -10 16 0 6 5 7 10 4 6 -3 10 -11 10
-16z m266 6 c-11 -8 -34 -15 -50 -14 l-31 0 35 13 c50 19 70 19 46 1z m734 10
c0 -2 -10 -9 -22 -15 -22 -11 -22 -10 -4 4 21 17 26 19 26 11z m657 -17 c-3
-8 -6 -5 -6 6 -1 11 2 17 5 13 3 -3 4 -12 1 -19z m330 0 c-3 -8 -6 -5 -6 6 -1
11 2 17 5 13 3 -3 4 -12 1 -19z m-3690 -4 c-3 -3 -12 -4 -19 -1 -8 3 -5 6 6 6
11 1 17 -2 13 -5z m813 -90 c0 -3 -5 -14 -10 -25 -16 -28 7 -25 36 6 13 14 33
25 45 25 20 0 21 -1 7 -17 -9 -10 -19 -29 -23 -43 -7 -23 -7 -24 11 -10 18 14
18 14 4 -5 -8 -11 -17 -22 -21 -25 -3 -3 -18 -22 -33 -43 -43 -57 -21 -59 30
-2 98 109 115 127 119 123 3 -2 -16 -27 -40 -55 -25 -28 -45 -55 -45 -59 0 -4
-8 -13 -17 -20 -10 -7 -14 -16 -10 -21 5 -4 26 11 48 34 21 23 39 39 39 35 0
-4 12 11 26 31 14 21 28 36 31 33 3 -3 -24 -47 -59 -98 -36 -51 -67 -101 -71
-110 -12 -34 8 -18 50 40 24 31 70 86 104 122 l60 65 -35 -55 c-101 -159 -148
-241 -142 -247 4 -4 11 -1 16 7 18 33 230 304 230 296 0 -3 -18 -35 -40 -71
-22 -36 -40 -68 -40 -70 0 -16 23 0 46 33 31 44 29 38 -29 -93 -54 -121 -64
-151 -46 -140 9 6 11 3 6 -9 -13 -32 -19 -66 -13 -66 3 0 21 30 40 68 41 79
46 71 11 -18 -14 -35 -23 -66 -20 -68 7 -7 8 -7 57 98 24 52 51 102 59 110 9
8 16 20 17 25 3 18 36 75 44 75 5 0 8 8 9 18 0 9 3 12 5 5 3 -6 -2 -26 -12
-44 -26 -51 -65 -161 -68 -194 -2 -16 -7 -48 -10 -70 -7 -40 -7 -40 23 18 16
31 34 70 39 85 19 49 13 -7 -8 -88 -11 -41 -20 -85 -20 -96 0 -12 -7 -25 -16
-28 -9 -3 -162 -6 -340 -6 l-324 0 2 85 c3 80 11 104 24 70 6 -15 34 -22 34
-8 0 3 -12 21 -26 40 -14 19 -23 37 -20 40 3 4 6 0 6 -7 0 -11 2 -12 13 -1 10
10 9 14 -5 22 -10 6 -18 19 -18 31 0 17 2 18 15 8 22 -18 31 -4 12 18 -18 20
-23 42 -9 42 5 0 21 -18 38 -40 16 -22 32 -40 37 -40 13 0 8 25 -10 50 -10 14
-23 40 -30 58 -11 33 -11 33 8 16 18 -16 21 -16 35 -2 15 15 14 18 -10 33 -27
18 -72 82 -63 91 3 3 16 -11 29 -30 14 -20 27 -33 31 -30 7 8 -13 67 -27 76
-7 5 -7 8 -1 8 6 0 23 -14 39 -31 21 -22 31 -27 37 -18 6 10 11 10 23 0 13
-11 14 -9 10 15 -3 16 -10 34 -16 41 -8 10 3 13 56 13 36 0 66 -3 66 -6z m983
-33 c-1 -24 2 -30 10 -22 15 15 47 14 48 -1 0 -7 4 -3 9 10 5 12 14 22 19 22
15 0 20 -27 8 -39 -9 -9 -8 -11 6 -6 22 9 21 -1 -8 -50 -26 -43 -35 -62 -70
-141 -53 -117 -105 -244 -105 -253 0 -28 -17 -6 -33 42 -18 52 -157 348 -168
357 -3 3 -20 31 -38 62 l-32 58 178 -3 178 -2 -2 -34z m77 29 c0 -5 -4 -10
-10 -10 -5 0 -10 5 -10 10 0 6 5 10 10 10 6 0 10 -4 10 -10z m612 -5 c3 3 44
8 92 10 113 7 126 -3 73 -57 -22 -22 -36 -42 -33 -45 6 -7 41 15 73 46 37 35
39 24 3 -14 -48 -49 -32 -53 22 -5 65 56 70 50 11 -13 -47 -50 -80 -97 -68
-97 3 0 31 25 63 56 31 31 71 65 87 77 l30 21 -25 -30 c-14 -16 -28 -31 -31
-34 -23 -21 -99 -123 -94 -128 3 -3 46 34 96 84 49 49 92 91 96 94 12 10 -18
-39 -33 -55 -20 -20 -11 -33 11 -15 9 8 15 8 15 2 0 -6 -4 -13 -9 -16 -19 -12
-72 -119 -68 -136 2 -9 0 -25 -5 -34 -17 -31 1 -16 27 21 30 45 33 37 5 -17
-11 -22 -20 -42 -20 -46 0 -4 9 1 20 11 11 10 20 22 20 27 0 11 116 175 130
183 9 6 -19 -55 -31 -65 -11 -11 -39 -79 -39 -97 0 -10 -4 -23 -9 -28 -5 -6
-12 -21 -16 -34 -11 -38 11 -17 41 39 15 28 29 49 31 47 1 -2 -9 -32 -23 -66
-35 -89 -25 -112 15 -31 33 69 33 66 -5 -44 -29 -83 -30 -101 -5 -63 13 20 20
25 24 15 2 -7 16 11 31 42 30 64 31 63 11 -26 -20 -83 -15 -115 9 -59 34 82
36 83 33 22 -2 -33 -9 -62 -16 -67 -7 -4 -172 -8 -366 -9 l-354 -2 -15 52
c-21 69 -19 82 4 39 18 -32 19 -33 19 -10 0 14 -6 54 -14 90 -15 72 -14 85 5
41 7 -17 19 -36 27 -43 14 -11 15 -8 8 22 -7 33 -7 34 10 20 17 -14 18 -13 11
10 -5 14 -10 41 -13 60 l-5 35 26 -30 c29 -34 33 -22 11 33 -14 36 -14 36 3
16 9 -12 22 -30 28 -40 7 -11 14 -17 17 -14 8 8 -19 104 -38 137 l-17 28 22
-27 c12 -16 28 -28 37 -28 12 0 11 7 -7 38 l-22 37 31 -35 c17 -19 31 -38 31
-42 0 -4 5 -8 11 -8 6 0 8 7 5 16 -19 50 -18 65 3 71 28 7 27 18 -4 45 -25 22
-36 50 -12 29 8 -6 16 -9 19 -6z m788 -10 c0 -14 6 -25 14 -25 9 0 12 8 8 25
-3 20 0 25 17 25 12 0 21 -6 21 -15 0 -8 7 -15 16 -15 8 0 12 5 9 10 -3 6 3
10 13 10 13 0 24 -11 32 -32 l12 -33 8 25 c5 14 9 18 9 10 1 -8 8 -28 16 -45
l15 -30 -5 40 c-4 36 -4 38 7 15 30 -65 48 -110 49 -122 0 -7 4 -4 8 7 5 12 1
35 -9 60 -10 22 -21 57 -24 78 l-7 37 41 0 c33 0 40 -3 40 -20 0 -11 5 -20 10
-20 6 0 10 10 10 23 1 20 2 20 11 4 5 -9 7 -22 4 -27 -3 -6 -2 -10 4 -10 6 0
13 11 17 25 3 14 10 25 15 25 8 0 14 -41 9 -65 -1 -5 4 -4 12 3 7 7 13 20 13
29 0 9 6 18 14 21 8 3 11 0 7 -6 -3 -6 -3 -18 1 -28 6 -16 9 -14 19 11 l13 30
1 -33 c0 -38 -12 -64 -46 -101 -13 -14 -24 -29 -24 -33 0 -4 -31 -54 -68 -110
-110 -166 -152 -234 -152 -245 0 -14 -34 -23 -87 -23 -38 0 -43 3 -49 28 -34
156 -72 279 -132 425 l-40 97 74 0 c72 0 74 -1 74 -25z m-1330 5 c0 -5 -4 -10
-10 -10 -5 0 -10 5 -10 10 0 6 5 10 10 10 6 0 10 -4 10 -10z m2800 -65 c0 -8
-4 -15 -10 -15 -5 0 -7 7 -4 15 4 8 8 15 10 15 2 0 4 -7 4 -15z m295 -65 c3
-5 -1 -10 -10 -10 -9 0 -13 5 -10 10 3 6 8 10 10 10 2 0 7 -4 10 -10z m-2925
-14 c0 -3 -19 -17 -42 -33 -66 -44 -68 -45 -63 -31 3 8 27 26 53 40 54 30 52
29 52 24z m20 -56 c-19 -16 -41 -30 -47 -30 -7 0 -13 -4 -13 -8 0 -5 -12 -15
-27 -23 -16 -8 -37 -22 -47 -31 -19 -17 -36 -23 -36 -13 0 25 29 56 68 70 24
10 63 28 86 41 54 31 58 30 16 -6z m2460 10 c0 -5 -4 -10 -10 -10 -5 0 -10 5
-10 10 0 6 5 10 10 10 6 0 10 -4 10 -10z m-6699 -10 c16 -9 19 -21 18 -73 l0
-62 -16 50 c-8 28 -19 54 -24 60 -10 10 -12 35 -3 35 3 0 14 -5 25 -10z m6677
-67 c-3 -54 -18 -87 -18 -39 0 13 -5 37 -10 52 -7 19 -7 30 1 40 20 24 30 4
27 -53z m-2409 24 c-14 -12 -41 -33 -59 -47 -19 -14 -48 -38 -65 -53 l-30 -29
49 26 c27 15 51 24 53 22 2 -2 -29 -32 -69 -67 -40 -34 -75 -66 -76 -71 -6
-15 32 5 87 45 68 50 63 36 -17 -47 -60 -62 -66 -65 -108 -64 -49 1 -51 4 -28
65 13 34 38 59 128 131 104 83 144 111 156 111 3 0 -7 -10 -21 -22z m-1009 5
c0 -5 -7 -17 -15 -28 -14 -18 -14 -17 -4 9 12 27 19 34 19 19z m-1010 -6 c0
-2 -8 -10 -17 -17 -16 -13 -17 -12 -4 4 13 16 21 21 21 13z m1140 -117 c-6
-19 -15 -62 -21 -96 -6 -35 -17 -64 -25 -67 -8 -3 -14 0 -14 7 0 18 61 199 66
194 2 -2 -1 -19 -6 -38z m709 29 c-2 -2 -17 -14 -33 -28 -27 -24 -28 -24 -17
-3 11 22 42 45 50 37 2 -2 2 -5 0 -6z m2676 -18 c-3 -5 -11 -10 -16 -10 -6 0
-7 5 -4 10 3 6 11 10 16 10 6 0 7 -4 4 -10z m-1704 -41 c-5 -13 -10 -19 -10
-12 -1 15 10 45 15 40 3 -2 0 -15 -5 -28z m1644 5 c-33 -28 -134 -78 -142 -71
-2 3 16 17 41 32 25 15 46 31 46 36 0 5 11 9 24 9 14 0 28 5 31 10 3 6 12 10
18 10 7 -1 -1 -12 -18 -26z m-4366 -70 c-55 -57 -86 -80 -96 -70 -7 6 64 79
108 112 52 38 46 19 -12 -42z m1065 29 c-9 -47 -32 -113 -33 -94 -1 18 30 131
36 131 2 0 1 -17 -3 -37z m38 -31 c-3 -42 -9 -65 -19 -69 -24 -9 -24 2 -2 71
12 36 23 65 24 64 1 -2 0 -31 -3 -66z m1740 -14 c-1 -23 -7 -45 -14 -49 -20
-12 -21 -3 -8 51 14 59 24 58 22 -2z m-1635 -40 c-2 -13 -4 -3 -4 22 0 25 2
35 4 23 2 -13 2 -33 0 -45z m641 45 c-8 -10 -18 -26 -21 -36 -7 -19 -34 -33
-44 -23 -8 7 56 76 71 76 5 0 2 -8 -6 -17z m2362 -3 c0 -5 -17 -17 -37 -27
-21 -9 -59 -32 -86 -49 -26 -18 -57 -36 -69 -40 -12 -4 -28 -13 -36 -20 -7 -8
-21 -14 -30 -14 -16 0 2 14 48 37 8 4 58 33 110 65 106 64 100 61 100 48z
m-1341 -44 c-9 -8 -10 -7 -5 7 3 10 7 24 7 30 1 7 3 4 6 -7 3 -10 -1 -23 -8
-30z m-1722 -3 c-3 -10 -5 -4 -5 12 0 17 2 24 5 18 2 -7 2 -21 0 -30z m870 -5
c-3 -8 -6 -5 -6 6 -1 11 2 17 5 13 3 -3 4 -12 1 -19z m1912 -112 c-2 -2 -15
-9 -29 -15 -24 -11 -24 -11 -6 3 16 13 49 24 35 12z m-2778 -68 l0 -23 9 23
c6 15 18 22 35 22 24 0 25 -3 26 -62 l2 -63 9 63 c12 74 31 82 50 20 l12 -43
6 45 c4 25 5 -20 3 -100 -4 -142 -27 -273 -55 -307 -8 -10 -118 -13 -489 -13
l-479 0 0 230 0 230 435 0 435 0 1 -22z m594 -5 l-7 -28 24 28 c28 32 65 39
48 8 -5 -11 -6 -22 -1 -25 4 -3 13 6 19 19 17 37 58 34 65 -4 3 -15 3 -38 0
-50 -11 -43 7 -19 20 27 13 45 15 47 55 50 l41 3 6 -45 c4 -26 11 -46 16 -46
5 0 6 20 2 45 l-6 45 431 0 430 0 -5 -39 c-3 -21 -1 -46 4 -56 9 -15 14 -9 36
36 33 69 35 51 2 -29 -27 -67 -32 -96 -12 -68 11 15 12 9 3 -38 -6 -31 -14
-56 -18 -56 -4 0 -8 -6 -8 -14 0 -8 -11 -28 -25 -44 -14 -17 -25 -35 -25 -41
0 -6 -4 -11 -10 -11 -5 0 -10 -6 -10 -13 0 -8 -9 -22 -20 -32 -14 -13 -17 -21
-9 -26 8 -5 5 -10 -9 -18 -15 -8 -195 -10 -624 -9 l-603 3 -12 85 c-19 134
-18 226 6 293 11 31 23 62 26 67 3 6 45 10 92 10 l85 0 -7 -27z m2090 17 c-3
-5 -12 -10 -18 -10 -7 0 -6 4 3 10 19 12 23 12 15 0z m-175 -104 c0 -3 -4 -8
-10 -11 -5 -3 -10 -1 -10 4 0 6 5 11 10 11 6 0 10 -2 10 -4z m-40 -26 c0 -5
-5 -10 -11 -10 -5 0 -7 5 -4 10 3 6 8 10 11 10 2 0 4 -4 4 -10z m-673 -55 c-1
-19 -5 -31 -10 -26 -7 7 0 61 8 61 2 0 3 -16 2 -35z m623 31 c0 -9 -141 -88
-147 -83 -3 4 3 10 13 14 10 4 44 22 74 40 57 34 60 36 60 29z m-200 -111 c-7
-8 -17 -15 -22 -15 -6 0 -23 -9 -39 -21 -16 -11 -29 -17 -29 -12 0 7 87 62 99
63 2 0 -2 -7 -9 -15z m1145 -44 c17 -7 14 -11 -25 -28 -78 -35 -111 -41 -260
-46 -166 -6 -212 2 -123 21 32 7 74 12 93 12 84 -2 241 20 256 35 17 16 29 18
59 6z m-6500 -10 l40 -8 -50 -6 c-27 -4 -75 -12 -105 -18 -30 -7 -96 -14 -146
-16 -78 -4 -97 -2 -130 16 l-39 20 45 1 c25 1 91 2 148 2 56 0 102 4 102 9 0
11 79 11 135 0z m5254 -4 c-48 -34 -93 -57 -102 -54 -7 3 -1 9 13 15 14 6 38
20 55 31 16 11 31 18 34 16 2 -3 2 -6 0 -8z m-1780 -100 c1 -24 -3 -28 -21
-25 -25 3 -26 19 -6 93 l11 40 8 -40 c4 -22 8 -53 8 -68z m50 -14 c1 -7 -3
-13 -9 -13 -5 0 -10 15 -9 33 0 27 2 29 9 12 5 -11 9 -26 9 -32z m1581 32 c0
-5 -53 -40 -120 -77 -25 -14 -62 -35 -82 -48 -21 -12 -38 -18 -38 -13 0 6 227
143 238 143 1 0 2 -2 2 -5z m-394 -133 c-17 -16 -18 -16 -5 5 7 12 15 20 18
17 3 -2 -3 -12 -13 -22z m140 -21 c-3 -5 -20 -16 -38 -25 -18 -9 -46 -25 -63
-35 -16 -10 -34 -16 -39 -13 -4 2 23 22 60 43 69 39 90 47 80 30z m-171 -81
c10 8 15 9 15 1 0 -6 -12 -17 -27 -25 -27 -13 -28 -13 -29 10 -2 20 1 23 12
13 11 -9 18 -8 29 1z m-1505 -37 c-1 -5 -7 -35 -15 -68 -36 -155 -47 -204 -56
-255 -6 -30 -16 -58 -22 -62 -17 -11 -785 -10 -791 1 -3 4 -8 94 -12 200 l-7
191 451 0 c249 0 452 -3 452 -7z m1419 -15 c10 -26 3 -47 -9 -28 -6 9 -11 6
-20 -10 -8 -15 -8 -20 -1 -16 16 10 14 3 -11 -41 -13 -22 -28 -38 -34 -36 -15
5 -47 -45 -38 -60 4 -7 4 -9 -1 -5 -10 10 -58 -59 -50 -72 3 -5 0 -7 -8 -4
-11 4 -13 -1 -9 -22 4 -23 2 -26 -12 -21 -9 4 -15 3 -11 -2 3 -5 -1 -15 -8
-23 -7 -7 -14 -15 -15 -18 0 -3 -5 -17 -11 -32 -12 -32 -26 -38 -16 -8 6 20 2
20 -514 20 -286 0 -522 3 -524 8 -7 11 50 328 68 380 3 9 135 12 610 12 l606
0 8 -22z m-4789 -722 c93 -22 149 -59 224 -146 26 -30 58 -76 71 -101 30 -58
57 -200 53 -276 l-3 -58 -110 -11 c-60 -6 -136 -15 -167 -19 -50 -6 -58 -5
-58 9 0 9 -8 16 -20 16 -18 0 -20 7 -20 56 0 66 -17 139 -36 155 -8 7 -28 9
-49 5 -44 -9 -65 -46 -65 -113 1 -96 41 -158 200 -313 120 -117 241 -257 278
-322 18 -30 44 -86 58 -124 24 -64 26 -78 22 -189 -4 -113 -6 -124 -38 -188
-51 -101 -114 -166 -206 -213 l-77 -39 -141 0 c-140 0 -142 0 -209 33 -45 23
-93 58 -141 105 -114 113 -146 198 -146 388 l0 99 160 0 c88 0 163 0 168 0 4
0 9 -42 12 -94 6 -117 22 -141 19 -28 -1 45 1 85 5 89 3 3 6 -35 6 -86 0 -84
2 -94 25 -116 26 -27 63 -32 114 -14 37 13 47 28 56 90 15 98 1 118 -290 428
-183 195 -234 282 -257 439 -14 95 -1 219 32 304 42 112 166 212 293 237 65
13 176 12 237 -3z m6941 -2 c78 -23 149 -66 206 -126 99 -106 133 -195 133
-353 l0 -101 -127 -13 c-71 -6 -147 -14 -170 -18 -39 -5 -43 -4 -43 16 0 15
-5 21 -17 19 -16 -3 -19 9 -25 85 -3 48 -12 95 -18 103 -7 8 -30 14 -51 14
-47 0 -67 -25 -75 -97 -10 -84 25 -142 189 -313 82 -85 174 -187 291 -321 58
-67 68 -99 74 -239 5 -135 -8 -247 -36 -299 -26 -48 -120 -138 -177 -171 -29
-16 -83 -39 -121 -51 -60 -18 -83 -21 -169 -15 -142 10 -209 42 -313 150 -112
117 -142 193 -142 366 l0 88 68 7 c37 3 103 10 146 15 108 14 126 13 126 -5 0
-8 6 -15 14 -15 10 0 15 -23 19 -87 3 -49 8 -95 12 -104 8 -21 48 -39 86 -39
37 0 98 38 105 67 10 39 -16 130 -50 175 -19 24 -43 59 -53 76 -11 18 -71 85
-134 150 -165 171 -251 279 -292 371 -32 71 -41 294 -16 376 29 95 101 191
182 242 89 58 267 80 378 47z m-1011 -39 c77 -27 92 -37 160 -105 122 -121
152 -210 151 -445 -1 -242 -28 -336 -123 -426 l-59 -57 19 -58 c11 -33 30 -95
42 -139 34 -127 51 -186 70 -250 40 -130 51 -179 47 -197 -3 -10 -1 -18 3 -18
9 0 40 -84 40 -107 0 -9 -15 -13 -52 -11 l-53 1 45 6 c38 5 44 9 42 26 -5 26
-12 33 -12 12 0 -15 -19 -16 -175 -16 -120 1 -177 5 -184 13 -6 6 -15 42 -20
78 -6 36 -22 104 -35 149 -13 46 -43 156 -66 244 -56 216 -59 225 -87 225 -13
0 -24 -1 -25 -2 -1 -2 -5 -160 -8 -351 l-5 -348 -150 -4 c-82 -3 -157 -2 -166
0 -15 5 -17 89 -24 901 -6 752 -5 898 6 905 8 5 130 8 274 7 l260 -3 85 -30z
m-2001 -582 c-34 -58 -43 -63 -18 -10 13 26 27 47 32 47 5 0 -1 -17 -14 -37z
m1763 -867 c-2 -301 -5 -355 -17 -360 -17 -6 -21 9 -5 19 6 4 10 132 10 351 0
189 3 344 8 344 4 0 6 -159 4 -354z m-4275 162 c-3 -8 -6 -5 -6 6 -1 11 2 17
5 13 3 -3 4 -12 1 -19z m-16 -65 c-9 -16 -10 -14 -11 12 0 21 3 26 11 18 8 -8
8 -16 0 -30z m-14 -60 c-3 -10 -5 -4 -5 12 0 17 2 24 5 18 2 -7 2 -21 0 -30z
m-18 -107 c-7 -36 -16 -66 -20 -66 -5 0 -7 6 -4 13 2 6 9 38 15 70 7 32 14 57
16 54 3 -3 -1 -34 -7 -71z m1656 -16 c10 -11 14 -20 9 -20 -5 0 -15 9 -22 20
-7 11 -11 20 -9 20 2 0 12 -9 22 -20z m-1695 -175 c-16 -68 -28 -105 -37 -105
-7 0 -13 5 -13 10 0 6 4 10 9 10 5 0 14 24 20 53 19 91 35 147 39 142 3 -3 -6
-52 -18 -110z m-250 -95 c0 -5 -4 -10 -9 -10 -6 0 -13 5 -16 10 -3 6 1 10 9
10 9 0 16 -4 16 -10z m135 0 c-3 -5 -25 -9 -48 -8 l-42 1 45 7 c25 4 46 8 48
8 2 1 0 -2 -3 -8z m285 0 c0 -5 -4 -10 -9 -10 -6 0 -13 5 -16 10 -3 6 1 10 9
10 9 0 16 -4 16 -10z m1720 0 c0 -5 -7 -7 -15 -4 -8 4 -15 8 -15 10 0 2 7 4
15 4 8 0 15 -4 15 -10z m1140 0 c0 -5 -2 -10 -4 -10 -3 0 -8 5 -11 10 -3 6 -1
10 4 10 6 0 11 -4 11 -10z m1590 6 c0 -11 -19 -15 -25 -6 -3 5 1 10 9 10 9 0
16 -2 16 -4z m-5147 -13 c-13 -2 -35 -2 -50 0 -16 2 -5 4 22 4 28 0 40 -2 28
-4z m790 0 c-13 -2 -35 -2 -50 0 -16 2 -5 4 22 4 28 0 40 -2 28 -4z m134 1
c-3 -3 -12 -4 -19 -1 -8 3 -5 6 6 6 11 1 17 -2 13 -5z m1560 0 c-3 -3 -12 -4
-19 -1 -8 3 -5 6 6 6 11 1 17 -2 13 -5z m56 -1 c-7 -2 -21 -2 -30 0 -10 3 -4
5 12 5 17 0 24 -2 18 -5z m85 0 c-10 -2 -28 -2 -40 0 -13 2 -5 4 17 4 22 1 32
-1 23 -4z m565 0 c-13 -2 -33 -2 -45 0 -13 2 -3 4 22 4 25 0 35 -2 23 -4z
m144 1 c-3 -3 -12 -4 -19 -1 -8 3 -5 6 6 6 11 1 17 -2 13 -5z m266 -1 c-7 -2
-19 -2 -25 0 -7 3 -2 5 12 5 14 0 19 -2 13 -5z m380 0 c-62 -2 -165 -2 -230 0
-65 1 -14 3 112 3 127 0 180 -2 118 -3z m1360 0 c-13 -2 -33 -2 -45 0 -13 2
-3 4 22 4 25 0 35 -2 23 -4z m-1635 -420 c-9 -63 -34 -112 -65 -124 -34 -13
-73 -4 -73 18 0 15 116 138 134 141 5 1 6 -15 4 -35z m-1560 -180 c39 -24 46
-59 27 -138 -9 -38 -19 -76 -22 -83 -3 -7 24 15 60 50 136 133 169 158 210
158 20 0 37 -4 37 -10 0 -5 -14 -32 -31 -60 -38 -61 -48 -120 -25 -139 9 -7
16 -17 16 -22 0 -11 -60 -12 -76 -1 -20 13 -34 50 -34 87 l0 36 -23 -18 c-51
-40 -144 -153 -170 -207 -15 -31 -35 -86 -44 -122 -17 -69 -28 -80 -68 -70
-34 9 -33 34 9 170 44 139 76 267 76 298 0 13 -9 31 -20 41 -55 46 11 72 78
30z m3377 -63 c808 0 905 -2 919 -16 9 -8 16 -18 16 -22 -1 -31 -15 -32 -947
-33 -512 -1 -936 2 -942 5 -31 20 3 83 37 71 8 -3 420 -5 917 -5z m-5159 -26
c4 -15 2 -30 -5 -37 -9 -9 -238 -11 -939 -9 -509 2 -930 6 -934 8 -10 6 -11
48 -1 57 3 4 426 7 939 7 l934 0 6 -26z m-10 -198 c18 -7 18 -40 0 -55 -10 -8
-264 -10 -942 -9 l-929 3 -3 23 c-2 13 1 28 6 35 8 9 228 12 932 10 508 -1
929 -4 936 -7z m6082 -1 c8 -3 12 -16 10 -32 l-3 -28 -937 -3 -937 -2 -11 21
c-9 16 -8 24 4 38 14 16 76 17 938 14 508 -2 929 -6 936 -8z"/>
<path d="M8229 5783 c21 -4 23 -9 18 -44 -6 -46 17 -56 26 -11 3 15 9 35 12
45 6 15 1 17 -36 16 -26 -1 -34 -4 -20 -6z"/>
<path d="M7760 5754 c0 -8 5 -12 10 -9 6 3 10 10 10 16 0 5 -4 9 -10 9 -5 0
-10 -7 -10 -16z"/>
<path d="M8215 5750 c-7 -12 2 -30 16 -30 5 0 9 9 9 20 0 21 -15 27 -25 10z"/>
<path d="M7560 5740 c0 -5 5 -10 10 -10 6 0 10 5 10 10 0 6 -4 10 -10 10 -5 0
-10 -4 -10 -10z"/>
<path d="M7757 5723 c-12 -12 -7 -22 8 -17 8 4 15 10 15 15 0 11 -14 12 -23 2z"/>
<path d="M7700 5710 c0 -5 5 -10 11 -10 5 0 7 5 4 10 -3 6 -8 10 -11 10 -2 0
-4 -4 -4 -10z"/>
<path d="M7580 5701 c-22 -6 -23 -8 -7 -14 24 -9 24 -9 31 8 3 8 4 15 3 14 -1
-1 -13 -4 -27 -8z"/>
<path d="M7660 5690 c0 -5 5 -10 10 -10 6 0 10 5 10 10 0 6 -4 10 -10 10 -5 0
-10 -4 -10 -10z"/>
<path d="M7628 5663 c7 -3 16 -2 19 1 4 3 -2 6 -13 5 -11 0 -14 -3 -6 -6z"/>
<path d="M8180 5609 c0 -5 5 -7 10 -4 6 3 10 8 10 11 0 2 -4 4 -10 4 -5 0 -10
-5 -10 -11z"/>
<path d="M7795 5600 c-8 -13 15 -13 35 0 12 8 11 10 -7 10 -12 0 -25 -4 -28
-10z"/>
<path d="M8161 5574 c0 -11 3 -14 6 -6 3 7 2 16 -1 19 -3 4 -6 -2 -5 -13z"/>
<path d="M4005 5539 c-4 -6 -5 -12 -2 -15 2 -3 7 2 10 11 7 17 1 20 -8 4z"/>
<path d="M4156 5471 c-4 -5 3 -7 14 -4 23 6 26 13 6 13 -8 0 -17 -4 -20 -9z"/>
<path d="M7070 5519 c0 -5 5 -7 10 -4 6 3 10 8 10 11 0 2 -4 4 -10 4 -5 0 -10
-5 -10 -11z"/>
<path d="M5436 5485 c-9 -26 -7 -32 5 -12 6 10 9 21 6 23 -2 3 -7 -2 -11 -11z"/>
<path d="M7381 5254 c0 -11 3 -14 6 -6 3 7 2 16 -1 19 -3 4 -6 -2 -5 -13z"/>
<path d="M2293 2433 c-18 -2 -33 -9 -33 -14 0 -6 19 -7 48 -4 26 4 76 10 112
14 l65 8 -80 0 c-44 0 -95 -2 -112 -4z"/>
<path d="M9190 2420 c0 -7 24 -8 68 -4 90 9 91 14 4 14 -43 0 -72 -4 -72 -10z"/>
<path d="M8833 1733 c15 -2 37 -2 50 0 12 2 0 4 -28 4 -27 0 -38 -2 -22 -4z"/>
<path d="M7893 2565 c0 -33 2 -45 4 -27 2 18 2 45 0 60 -2 15 -4 0 -4 -33z"/>
<path d="M7938 2613 c-16 -4 -18 -22 -18 -194 l0 -189 46 0 c56 0 100 24 114
63 13 40 13 246 -1 286 -6 17 -16 31 -22 32 -58 5 -105 6 -119 2z"/>
<path d="M7892 2346 c-1 -66 1 -116 6 -110 4 5 5 59 2 119 l-6 110 -2 -119z"/>
<path d="M8281 1904 c0 -11 3 -14 6 -6 3 7 2 16 -1 19 -3 4 -6 -2 -5 -13z"/>
<path d="M8301 1835 c0 -5 12 -53 29 -105 16 -52 29 -88 29 -80 1 17 -57 200
-58 185z"/>
<path d="M8371 1584 c0 -11 3 -14 6 -6 3 7 2 16 -1 19 -3 4 -6 -2 -5 -13z"/>
<path d="M8381 1544 c0 -11 3 -14 6 -6 3 7 2 16 -1 19 -3 4 -6 -2 -5 -13z"/>
<path d="M8402 1480 c0 -8 8 -37 18 -65 10 -27 18 -43 18 -35 0 8 -8 38 -18
65 -10 28 -18 43 -18 35z"/>
<path d="M8441 1350 c0 -8 4 -24 9 -35 5 -13 9 -14 9 -5 0 8 -4 24 -9 35 -5
13 -9 14 -9 5z"/>
<path d="M2392 5810 c0 -14 2 -19 5 -12 2 6 2 18 0 25 -3 6 -5 1 -5 -13z"/>
<path d="M2391 5764 c0 -11 3 -14 6 -6 3 7 2 16 -1 19 -3 4 -6 -2 -5 -13z"/>
<path d="M2578 5693 c-10 -2 -18 -9 -18 -14 0 -12 3 -12 36 6 28 14 19 18 -18
8z"/>
<path d="M2392 5660 c0 -14 2 -19 5 -12 2 6 2 18 0 25 -3 6 -5 1 -5 -13z"/>
<path d="M2381 5604 c0 -11 3 -14 6 -6 3 7 2 16 -1 19 -3 4 -6 -2 -5 -13z"/>
<path d="M2370 5514 c0 -8 5 -12 10 -9 6 4 8 11 5 16 -9 14 -15 11 -15 -7z"/>
<path d="M2590 5520 c-8 -5 -12 -11 -10 -14 3 -2 14 2 24 10 22 15 10 19 -14
4z"/>
<path d="M2550 5420 c-9 -6 -10 -10 -3 -10 6 0 15 5 18 10 8 12 4 12 -15 0z"/>
<path d="M4015 3010 c-7 -12 2 -12 30 0 19 8 19 9 -2 9 -12 1 -25 -3 -28 -9z"/>
<path d="M4057 2993 c-3 -3 1 -12 9 -20 8 -9 18 -13 21 -10 3 3 -1 13 -10 21
-8 8 -17 12 -20 9z"/>
<path d="M7362 2723 l-2 -73 -237 -2 -238 -3 -3 -182 c-2 -128 1 -183 9 -183
7 0 10 51 9 168 -1 92 -1 173 -1 180 1 9 54 12 231 12 185 0 232 3 236 14 3 7
3 42 1 77 l-3 64 -2 -72z"/>
<path d="M5163 2716 c23 -59 31 -117 31 -226 l1 -125 89 -5 c56 -3 90 -1 93 5
2 6 2 89 1 185 l-3 175 -109 3 c-92 2 -108 0 -103 -12z"/>
<path d="M5771 2639 c0 -51 1 -90 3 -88 7 8 86 166 86 173 0 3 -20 6 -44 6
l-45 0 0 -91z"/>
<path d="M6243 2698 c-37 -64 -175 -340 -171 -343 13 -13 34 23 158 278 42 85
51 130 13 65z"/>
<path d="M4673 2621 c-17 -11 -34 -28 -37 -38 -11 -36 -11 -303 0 -311 5 -4
23 -25 39 -47 17 -22 32 -42 35 -45 17 -16 39 -60 30 -60 -5 0 -10 3 -10 8 0
4 -11 19 -25 34 -14 15 -36 43 -50 63 -23 36 -24 36 -30 13 -3 -13 -5 -176 -3
-362 3 -382 0 -366 84 -366 38 0 46 5 71 37 l28 36 3 490 c3 524 2 540 -45
558 -36 13 -54 11 -90 -10z m92 -521 c3 -5 1 -10 -4 -10 -6 0 -11 5 -11 10 0
6 2 10 4 10 3 0 8 -4 11 -10z m25 -41 c0 -5 -4 -9 -10 -9 -5 0 -10 7 -10 16 0
8 5 12 10 9 6 -3 10 -10 10 -16z"/>
<path d="M5741 2523 c0 -12 -4 -30 -7 -40 -5 -17 -5 -17 6 0 6 10 9 28 7 40
-4 22 -4 22 -6 0z"/>
<path d="M3311 2444 c0 -11 3 -14 6 -6 3 7 2 16 -1 19 -3 4 -6 -2 -5 -13z"/>
<path d="M3341 2294 c0 -11 3 -14 6 -6 3 7 2 16 -1 19 -3 4 -6 -2 -5 -13z"/>
<path d="M6020 2250 c-13 -28 -21 -52 -18 -55 3 -3 13 13 23 37 9 24 21 46 27
49 6 4 7 9 1 12 -6 4 -20 -16 -33 -43z"/>
<path d="M5174 1875 c0 -165 2 -234 3 -153 2 81 2 216 0 300 -1 84 -3 18 -3
-147z"/>
<path d="M5091 1329 c-27 -44 -89 -92 -170 -130 -60 -29 -78 -33 -191 -38
-119 -6 -122 -7 -66 -15 128 -19 260 13 353 86 55 42 112 113 100 124 -3 4
-15 -9 -26 -27z"/>
<path d="M4558 1168 c5 -5 16 -8 23 -6 8 3 3 7 -10 11 -17 4 -21 3 -13 -5z"/>
<path d="M4205 773 c-44 -40 -265 -356 -265 -380 0 -21 118 -16 224 8 160 38
288 102 335 168 65 91 -41 198 -215 216 -48 4 -63 2 -79 -12z"/>
<path d="M7238 429 c-20 -11 -88 -97 -88 -110 0 -32 91 16 114 59 19 37 3 68
-26 51z"/>
<path d="M6203 237 c-21 -45 -103 -155 -147 -195 l-46 -42 94 0 94 0 -5 43
c-3 23 2 80 11 127 16 88 16 105 -1 67z"/>
<path d="M4781 144 c-29 -36 -76 -83 -103 -105 l-50 -39 136 0 136 0 -20 20
c-29 29 -39 61 -41 130 -1 33 -2 60 -3 59 -1 0 -25 -30 -55 -65z"/>
<path d="M5653 115 c-37 -42 -81 -85 -98 -95 l-30 -20 134 0 134 0 -21 23
c-23 24 -41 90 -38 137 1 17 -1 30 -5 30 -4 0 -38 -34 -76 -75z"/>
</g>
</svg>
